# xmcd
#
# Track frame offsets:
#	150
#	15252
#	17732
#	41377
#	55052
#	81260
#	83967
#	102232
#	123140
#	140315
#	159190
#	176255
#	194580
#	214792
#	216412
#	235687
#	248857
#	269357
#
# Disc length: 3601 seconds
#
# Revision: 10
# Processed by: cddbd v1.5.2PL0 Copyright (c) Steve Scherf et al.
# Submitted via: EZCDAudioConverter 2.1.7.1
#
DISCID=e60e0f12
DTITLE=V/A - The End Of Violence
DYEAR=1997
DGENRE=
TTITLE0=Ry Cooder - Define Violence
TTITLE1=Ry Cooder - Shouldn't You Know
TTITLE2=Spain - Every Time I Try
TTITLE3=DJ Shadow - Untitled Heavy Beat (Part 1 and 2)
TTITLE4=U2 and Sinead O'Connor - I'm Not Your Baby
TTITLE5=U2 and Sinead O'Connor - Strange World
TTITLE6=Tom Waits - Little Drop Of Poison
TTITLE7=Medeski Martin and Wood - Disrobe
TTITLE8=Michael Stipe and Vic Chesnutt - Injured Bird
TTITLE9=Raul Malo - Bailare (El Merecumbe)
TTITLE10=Los Lobos - Me Estas Matando
TTITLE11=Latin Playboys - Mr. Wobble
TTITLE12=Whiskeytown - Theme For A Trucker
TTITLE13=Whiskeytown - Unintentional Prayers
TTITLE14=Roy Orbison - You May Feel Me Crying
TTITLE15=Eels - Bad News
TTITLE16=Howie B - Don't Even Know She Got One
TTITLE17=Howie B - In A Heartbeat
EXTD=
EXTT0=
EXTT1=
EXTT2=
EXTT3=
EXTT4=
EXTT5=
EXTT6=
EXTT7=
EXTT8=
EXTT9=
EXTT10=
EXTT11=
EXTT12=
EXTT13=
EXTT14=
EXTT15=
EXTT16=
EXTT17=
PLAYORDER=
